<svg xmlns="http://www.w3.org/2000/svg" viewBox="0 0 330 160" width="330" height="160" font-family="serif" font-size="15">
  <defs><marker id="ah" viewBox="0 0 10 10" refX="9" refY="5" markerWidth="7" markerHeight="7" orient="auto-start-reverse"><path d="M0,0 L10,5 L0,10 z" fill="currentColor"/></marker></defs>
  <polygon points="30,130 210,130 280,50 100,50" fill="currentColor" fill-opacity="0.08" stroke="none"/>
  <line x1="210" y1="130" x2="280" y2="50" stroke="currentColor" stroke-width="1"/>
  <line x1="100" y1="50" x2="280" y2="50" stroke="currentColor" stroke-width="1"/>
  <line x1="30" y1="130" x2="210" y2="130" stroke="currentColor" stroke-width="2" marker-end="url(#ah)"/>
  <line x1="30" y1="130" x2="100" y2="50" stroke="currentColor" stroke-width="2" marker-end="url(#ah)"/>
  <line x1="100" y1="50" x2="100" y2="130" stroke="currentColor" stroke-width="1" stroke-dasharray="4 3"/>
  <polyline points="100,120 110,120 110,130" fill="none" stroke="currentColor" stroke-width="1"/>
  <path d="M 62,130 A 32 32 0 0 0 51,106" fill="none" stroke="currentColor" stroke-width="1"/>
  <text x="66" y="122" font-style="italic">θ</text>
  <text x="120" y="150" font-weight="bold">a</text>
  <text x="44" y="82" font-weight="bold">b</text>
  <text x="105" y="95" font-style="italic">h</text>
  <text x="180" y="95">h = |<tspan font-weight="bold">b</tspan>| sin <tspan font-style="italic">θ</tspan></text>
</svg>
